<mxfile host="app.diagrams.net" agent="Mozilla/5.0 (Macintosh; Intel Mac OS X 10_15_7) AppleWebKit/537.36 (KHTML, like Gecko) Chrome/135.0.0.0 Safari/537.36" version="26.2.9">
  <diagram name="Page-1" id="iKMRJyYVElrFewXZlgx_">
    <mxGraphModel dx="1428" dy="722" grid="1" gridSize="10" guides="1" tooltips="1" connect="1" arrows="1" fold="1" page="1" pageScale="1" pageWidth="827" pageHeight="1169" background="#FFF4C3" math="0" shadow="0">
      <root>
        <mxCell id="0" />
        <mxCell id="1" parent="0" />
        <mxCell id="a2JRWLy81K5dylXvyoho-1" value="Basic Typing" style="text;html=1;align=center;verticalAlign=middle;whiteSpace=wrap;rounded=0;fontSize=15;textShadow=1;fontFamily=Comic Sans MS;" vertex="1" parent="1">
          <mxGeometry x="300" y="250" width="190" height="30" as="geometry" />
        </mxCell>
        <mxCell id="a2JRWLy81K5dylXvyoho-2" value="&lt;font style=&quot;font-size: 22px;&quot;&gt;CCC&lt;/font&gt;" style="text;html=1;align=center;verticalAlign=middle;whiteSpace=wrap;rounded=0;fontSize=15;textShadow=1;fontFamily=Comic Sans MS;sketch=1;curveFitting=1;jiggle=2;fillColor=#f8cecc;strokeColor=#b85450;" vertex="1" parent="1">
          <mxGeometry x="360" y="30" width="116" height="60" as="geometry" />
        </mxCell>
        <mxCell id="a2JRWLy81K5dylXvyoho-3" value="CCC - Course on Computer Concepts" style="text;html=1;align=center;verticalAlign=middle;whiteSpace=wrap;rounded=0;fontSize=15;textShadow=1;fontFamily=Comic Sans MS;" vertex="1" parent="1">
          <mxGeometry x="210" y="120" width="370" height="30" as="geometry" />
        </mxCell>
        <mxCell id="a2JRWLy81K5dylXvyoho-5" value="Text" style="text;html=1;align=center;verticalAlign=middle;whiteSpace=wrap;rounded=0;fontSize=15;textShadow=1;fontFamily=Comic Sans MS;" vertex="1" parent="1">
          <mxGeometry x="700" y="30" width="60" height="30" as="geometry" />
        </mxCell>
        <mxCell id="a2JRWLy81K5dylXvyoho-6" value="OS" style="text;html=1;align=center;verticalAlign=middle;whiteSpace=wrap;rounded=0;fontSize=15;textShadow=1;fontFamily=Comic Sans MS;" vertex="1" parent="1">
          <mxGeometry x="300" y="170" width="190" height="30" as="geometry" />
        </mxCell>
        <mxCell id="a2JRWLy81K5dylXvyoho-7" value="Hardware" style="text;html=1;align=center;verticalAlign=middle;whiteSpace=wrap;rounded=0;fontSize=15;textShadow=1;fontFamily=Comic Sans MS;" vertex="1" parent="1">
          <mxGeometry x="300" y="210" width="190" height="30" as="geometry" />
        </mxCell>
        <mxCell id="a2JRWLy81K5dylXvyoho-8" value="Basic Settings" style="text;html=1;align=center;verticalAlign=middle;whiteSpace=wrap;rounded=0;fontSize=15;textShadow=1;fontFamily=Comic Sans MS;" vertex="1" parent="1">
          <mxGeometry x="300" y="290" width="190" height="30" as="geometry" />
        </mxCell>
        <mxCell id="a2JRWLy81K5dylXvyoho-10" value="Basic MS Office" style="text;html=1;align=center;verticalAlign=middle;whiteSpace=wrap;rounded=0;fontSize=15;textShadow=1;fontFamily=Comic Sans MS;" vertex="1" parent="1">
          <mxGeometry x="300" y="330" width="190" height="30" as="geometry" />
        </mxCell>
        <mxCell id="a2JRWLy81K5dylXvyoho-11" value="Internet Knowledge" style="text;html=1;align=center;verticalAlign=middle;whiteSpace=wrap;rounded=0;fontSize=15;textShadow=1;fontFamily=Comic Sans MS;" vertex="1" parent="1">
          <mxGeometry x="300" y="370" width="190" height="30" as="geometry" />
        </mxCell>
        <mxCell id="a2JRWLy81K5dylXvyoho-12" value="&lt;font style=&quot;font-size: 22px;&quot;&gt;OS&lt;/font&gt;" style="text;html=1;align=center;verticalAlign=middle;whiteSpace=wrap;rounded=0;fontSize=15;textShadow=1;fontFamily=Comic Sans MS;sketch=1;curveFitting=1;jiggle=2;fillColor=#f8cecc;strokeColor=#b85450;" vertex="1" parent="1">
          <mxGeometry x="330" y="460" width="116" height="60" as="geometry" />
        </mxCell>
        <mxCell id="a2JRWLy81K5dylXvyoho-13" value="OS - Operating System" style="text;html=1;align=center;verticalAlign=middle;whiteSpace=wrap;rounded=0;fontSize=15;textShadow=1;fontFamily=Comic Sans MS;" vertex="1" parent="1">
          <mxGeometry x="300" y="540" width="190" height="30" as="geometry" />
        </mxCell>
        <mxCell id="a2JRWLy81K5dylXvyoho-14" value="Operating System is the controller of hardware and software.&amp;nbsp;&lt;div&gt;It helps users to have better UI&lt;/div&gt;" style="text;html=1;align=center;verticalAlign=middle;whiteSpace=wrap;rounded=0;fontSize=15;textShadow=1;fontFamily=Comic Sans MS;" vertex="1" parent="1">
          <mxGeometry x="139.5" y="590" width="557" height="30" as="geometry" />
        </mxCell>
        <mxCell id="a2JRWLy81K5dylXvyoho-15" value="OS Types" style="text;html=1;align=center;verticalAlign=middle;whiteSpace=wrap;rounded=0;fontSize=15;textShadow=1;fontFamily=Comic Sans MS;sketch=1;curveFitting=1;jiggle=2;fillColor=#f8cecc;strokeColor=#b85450;" vertex="1" parent="1">
          <mxGeometry x="293" y="650" width="190" height="30" as="geometry" />
        </mxCell>
        <mxCell id="a2JRWLy81K5dylXvyoho-16" value="MacOS" style="rounded=1;whiteSpace=wrap;html=1;" vertex="1" parent="1">
          <mxGeometry x="40" y="710" width="120" height="60" as="geometry" />
        </mxCell>
        <mxCell id="a2JRWLy81K5dylXvyoho-17" value="Windows" style="rounded=1;whiteSpace=wrap;html=1;" vertex="1" parent="1">
          <mxGeometry x="280" y="710" width="120" height="60" as="geometry" />
        </mxCell>
        <mxCell id="a2JRWLy81K5dylXvyoho-21" value="" style="edgeStyle=orthogonalEdgeStyle;rounded=0;orthogonalLoop=1;jettySize=auto;html=1;" edge="1" parent="1" source="a2JRWLy81K5dylXvyoho-18" target="a2JRWLy81K5dylXvyoho-20">
          <mxGeometry relative="1" as="geometry" />
        </mxCell>
        <mxCell id="a2JRWLy81K5dylXvyoho-18" value="Linux" style="rounded=1;whiteSpace=wrap;html=1;" vertex="1" parent="1">
          <mxGeometry x="620" y="710" width="120" height="60" as="geometry" />
        </mxCell>
        <mxCell id="a2JRWLy81K5dylXvyoho-22" style="edgeStyle=orthogonalEdgeStyle;rounded=0;orthogonalLoop=1;jettySize=auto;html=1;" edge="1" parent="1" source="a2JRWLy81K5dylXvyoho-19" target="a2JRWLy81K5dylXvyoho-16">
          <mxGeometry relative="1" as="geometry" />
        </mxCell>
        <mxCell id="a2JRWLy81K5dylXvyoho-23" style="edgeStyle=orthogonalEdgeStyle;rounded=0;orthogonalLoop=1;jettySize=auto;html=1;exitX=0.5;exitY=0;exitDx=0;exitDy=0;" edge="1" parent="1" source="a2JRWLy81K5dylXvyoho-19" target="a2JRWLy81K5dylXvyoho-17">
          <mxGeometry relative="1" as="geometry" />
        </mxCell>
        <mxCell id="a2JRWLy81K5dylXvyoho-19" value="Unix" style="rounded=1;whiteSpace=wrap;html=1;" vertex="1" parent="1">
          <mxGeometry x="40" y="870" width="120" height="60" as="geometry" />
        </mxCell>
        <mxCell id="a2JRWLy81K5dylXvyoho-20" value="Ubuntu" style="rounded=1;whiteSpace=wrap;html=1;" vertex="1" parent="1">
          <mxGeometry x="620" y="850" width="120" height="60" as="geometry" />
        </mxCell>
        <mxCell id="a2JRWLy81K5dylXvyoho-25" style="edgeStyle=orthogonalEdgeStyle;rounded=0;orthogonalLoop=1;jettySize=auto;html=1;entryX=0;entryY=0.5;entryDx=0;entryDy=0;" edge="1" parent="1" source="a2JRWLy81K5dylXvyoho-24" target="a2JRWLy81K5dylXvyoho-18">
          <mxGeometry relative="1" as="geometry" />
        </mxCell>
        <mxCell id="a2JRWLy81K5dylXvyoho-26" style="edgeStyle=orthogonalEdgeStyle;rounded=0;orthogonalLoop=1;jettySize=auto;html=1;entryX=1;entryY=0.5;entryDx=0;entryDy=0;" edge="1" parent="1" source="a2JRWLy81K5dylXvyoho-24" target="a2JRWLy81K5dylXvyoho-19">
          <mxGeometry relative="1" as="geometry" />
        </mxCell>
        <mxCell id="a2JRWLy81K5dylXvyoho-28" value="" style="edgeStyle=orthogonalEdgeStyle;rounded=0;orthogonalLoop=1;jettySize=auto;html=1;" edge="1" parent="1" source="a2JRWLy81K5dylXvyoho-24" target="a2JRWLy81K5dylXvyoho-27">
          <mxGeometry relative="1" as="geometry" />
        </mxCell>
        <mxCell id="a2JRWLy81K5dylXvyoho-30" style="edgeStyle=orthogonalEdgeStyle;rounded=0;orthogonalLoop=1;jettySize=auto;html=1;entryX=1;entryY=0.5;entryDx=0;entryDy=0;" edge="1" parent="1" source="a2JRWLy81K5dylXvyoho-24" target="a2JRWLy81K5dylXvyoho-29">
          <mxGeometry relative="1" as="geometry" />
        </mxCell>
        <mxCell id="a2JRWLy81K5dylXvyoho-24" value="Kernel" style="rounded=1;whiteSpace=wrap;html=1;" vertex="1" parent="1">
          <mxGeometry x="360" y="870" width="114" height="60" as="geometry" />
        </mxCell>
        <mxCell id="a2JRWLy81K5dylXvyoho-27" value="It runs the program in OS" style="ellipse;whiteSpace=wrap;html=1;rounded=1;" vertex="1" parent="1">
          <mxGeometry x="377" y="1000" width="80" height="80" as="geometry" />
        </mxCell>
        <mxCell id="a2JRWLy81K5dylXvyoho-29" value="Android" style="rounded=1;whiteSpace=wrap;html=1;" vertex="1" parent="1">
          <mxGeometry x="30" y="1020" width="120" height="60" as="geometry" />
        </mxCell>
        <mxCell id="a2JRWLy81K5dylXvyoho-31" value="&lt;font style=&quot;font-size: 22px;&quot;&gt;Hardware&lt;/font&gt;" style="text;html=1;align=center;verticalAlign=middle;whiteSpace=wrap;rounded=0;fontSize=15;textShadow=1;fontFamily=Comic Sans MS;sketch=1;curveFitting=1;jiggle=2;fillColor=#f8cecc;strokeColor=#b85450;" vertex="1" parent="1">
          <mxGeometry x="367" y="1220" width="116" height="60" as="geometry" />
        </mxCell>
        <mxCell id="a2JRWLy81K5dylXvyoho-32" value="Hardware Types" style="text;html=1;align=center;verticalAlign=middle;whiteSpace=wrap;rounded=0;fontSize=15;textShadow=1;fontFamily=Comic Sans MS;sketch=1;curveFitting=1;jiggle=2;fillColor=#f8cecc;strokeColor=#b85450;" vertex="1" parent="1">
          <mxGeometry x="322" y="1380" width="190" height="30" as="geometry" />
        </mxCell>
        <mxCell id="a2JRWLy81K5dylXvyoho-33" value="Hardware is the part of computer that we can touch and see from outside." style="text;html=1;align=center;verticalAlign=middle;whiteSpace=wrap;rounded=0;fontSize=15;textShadow=1;fontFamily=Comic Sans MS;" vertex="1" parent="1">
          <mxGeometry x="143" y="1310" width="557" height="30" as="geometry" />
        </mxCell>
        <mxCell id="a2JRWLy81K5dylXvyoho-37" value="" style="edgeStyle=orthogonalEdgeStyle;rounded=0;orthogonalLoop=1;jettySize=auto;html=1;" edge="1" parent="1" source="a2JRWLy81K5dylXvyoho-35" target="a2JRWLy81K5dylXvyoho-36">
          <mxGeometry relative="1" as="geometry" />
        </mxCell>
        <mxCell id="a2JRWLy81K5dylXvyoho-39" value="" style="edgeStyle=orthogonalEdgeStyle;rounded=0;orthogonalLoop=1;jettySize=auto;html=1;" edge="1" parent="1" source="a2JRWLy81K5dylXvyoho-35" target="a2JRWLy81K5dylXvyoho-38">
          <mxGeometry relative="1" as="geometry" />
        </mxCell>
        <mxCell id="a2JRWLy81K5dylXvyoho-41" value="" style="edgeStyle=orthogonalEdgeStyle;rounded=0;orthogonalLoop=1;jettySize=auto;html=1;" edge="1" parent="1" source="a2JRWLy81K5dylXvyoho-35" target="a2JRWLy81K5dylXvyoho-40">
          <mxGeometry relative="1" as="geometry" />
        </mxCell>
        <mxCell id="a2JRWLy81K5dylXvyoho-43" value="" style="edgeStyle=orthogonalEdgeStyle;rounded=0;orthogonalLoop=1;jettySize=auto;html=1;" edge="1" parent="1" source="a2JRWLy81K5dylXvyoho-35" target="a2JRWLy81K5dylXvyoho-42">
          <mxGeometry relative="1" as="geometry" />
        </mxCell>
        <mxCell id="a2JRWLy81K5dylXvyoho-45" value="" style="edgeStyle=orthogonalEdgeStyle;rounded=0;orthogonalLoop=1;jettySize=auto;html=1;" edge="1" parent="1" source="a2JRWLy81K5dylXvyoho-35" target="a2JRWLy81K5dylXvyoho-44">
          <mxGeometry relative="1" as="geometry" />
        </mxCell>
        <mxCell id="a2JRWLy81K5dylXvyoho-35" value="Input Devices" style="rounded=1;whiteSpace=wrap;html=1;" vertex="1" parent="1">
          <mxGeometry x="350" y="1510" width="120" height="60" as="geometry" />
        </mxCell>
        <mxCell id="a2JRWLy81K5dylXvyoho-36" value="Keyboard" style="rounded=1;whiteSpace=wrap;html=1;" vertex="1" parent="1">
          <mxGeometry x="210" y="1620" width="120" height="60" as="geometry" />
        </mxCell>
        <mxCell id="a2JRWLy81K5dylXvyoho-38" value="Mouse" style="rounded=1;whiteSpace=wrap;html=1;" vertex="1" parent="1">
          <mxGeometry x="350" y="1620" width="120" height="60" as="geometry" />
        </mxCell>
        <mxCell id="a2JRWLy81K5dylXvyoho-40" value="Pendrive" style="rounded=1;whiteSpace=wrap;html=1;" vertex="1" parent="1">
          <mxGeometry x="490" y="1620" width="120" height="60" as="geometry" />
        </mxCell>
        <mxCell id="a2JRWLy81K5dylXvyoho-42" value="Scanner" style="rounded=1;whiteSpace=wrap;html=1;" vertex="1" parent="1">
          <mxGeometry x="70" y="1620" width="120" height="60" as="geometry" />
        </mxCell>
        <mxCell id="a2JRWLy81K5dylXvyoho-44" value="Camera" style="rounded=1;whiteSpace=wrap;html=1;" vertex="1" parent="1">
          <mxGeometry x="640" y="1620" width="120" height="60" as="geometry" />
        </mxCell>
        <mxCell id="a2JRWLy81K5dylXvyoho-46" value="" style="edgeStyle=orthogonalEdgeStyle;rounded=0;orthogonalLoop=1;jettySize=auto;html=1;" edge="1" source="a2JRWLy81K5dylXvyoho-51" target="a2JRWLy81K5dylXvyoho-52" parent="1">
          <mxGeometry relative="1" as="geometry" />
        </mxCell>
        <mxCell id="a2JRWLy81K5dylXvyoho-49" value="" style="edgeStyle=orthogonalEdgeStyle;rounded=0;orthogonalLoop=1;jettySize=auto;html=1;" edge="1" source="a2JRWLy81K5dylXvyoho-51" target="a2JRWLy81K5dylXvyoho-55" parent="1">
          <mxGeometry relative="1" as="geometry" />
        </mxCell>
        <mxCell id="a2JRWLy81K5dylXvyoho-51" value="Output Device" style="rounded=1;whiteSpace=wrap;html=1;" vertex="1" parent="1">
          <mxGeometry x="340" y="1730" width="120" height="60" as="geometry" />
        </mxCell>
        <mxCell id="a2JRWLy81K5dylXvyoho-52" value="Speaker" style="rounded=1;whiteSpace=wrap;html=1;" vertex="1" parent="1">
          <mxGeometry x="340" y="1850" width="120" height="60" as="geometry" />
        </mxCell>
        <mxCell id="a2JRWLy81K5dylXvyoho-53" value="Projector" style="rounded=1;whiteSpace=wrap;html=1;" vertex="1" parent="1">
          <mxGeometry x="475" y="1850" width="120" height="60" as="geometry" />
        </mxCell>
        <mxCell id="a2JRWLy81K5dylXvyoho-55" value="Monitor" style="rounded=1;whiteSpace=wrap;html=1;" vertex="1" parent="1">
          <mxGeometry x="195" y="1850" width="120" height="60" as="geometry" />
        </mxCell>
        <mxCell id="a2JRWLy81K5dylXvyoho-57" style="edgeStyle=orthogonalEdgeStyle;rounded=0;orthogonalLoop=1;jettySize=auto;html=1;entryX=0.633;entryY=-0.05;entryDx=0;entryDy=0;entryPerimeter=0;" edge="1" parent="1" source="a2JRWLy81K5dylXvyoho-51" target="a2JRWLy81K5dylXvyoho-53">
          <mxGeometry relative="1" as="geometry" />
        </mxCell>
        <mxCell id="a2JRWLy81K5dylXvyoho-59" value="CPU" style="text;html=1;align=center;verticalAlign=middle;whiteSpace=wrap;rounded=0;fontSize=15;textShadow=1;fontFamily=Comic Sans MS;sketch=1;curveFitting=1;jiggle=2;fillColor=#f8cecc;strokeColor=#b85450;" vertex="1" parent="1">
          <mxGeometry x="350" y="1990" width="190" height="30" as="geometry" />
        </mxCell>
        <mxCell id="a2JRWLy81K5dylXvyoho-61" value="CPU - Control Processing Unit" style="text;html=1;align=center;verticalAlign=middle;whiteSpace=wrap;rounded=0;fontSize=15;textShadow=1;fontFamily=Comic Sans MS;" vertex="1" parent="1">
          <mxGeometry x="166.5" y="2050" width="557" height="30" as="geometry" />
        </mxCell>
        <mxCell id="a2JRWLy81K5dylXvyoho-62" value="CPU controls the process of internal hardware like, USB, Motherboard, Harddisk, SSD, RAM, Power" style="text;html=1;align=center;verticalAlign=middle;whiteSpace=wrap;rounded=0;fontSize=15;textShadow=1;fontFamily=Comic Sans MS;" vertex="1" parent="1">
          <mxGeometry x="160" y="2100" width="557" height="30" as="geometry" />
        </mxCell>
        <mxCell id="a2JRWLy81K5dylXvyoho-63" value="USB - Universal Serial Bus" style="text;html=1;align=center;verticalAlign=middle;whiteSpace=wrap;rounded=0;fontSize=15;textShadow=1;fontFamily=Comic Sans MS;" vertex="1" parent="1">
          <mxGeometry x="150" y="2150" width="557" height="30" as="geometry" />
        </mxCell>
        <mxCell id="a2JRWLy81K5dylXvyoho-64" value="SSD - Solid State Drive" style="text;html=1;align=center;verticalAlign=middle;whiteSpace=wrap;rounded=0;fontSize=15;textShadow=1;fontFamily=Comic Sans MS;" vertex="1" parent="1">
          <mxGeometry x="150" y="2180" width="557" height="30" as="geometry" />
        </mxCell>
        <mxCell id="a2JRWLy81K5dylXvyoho-65" value="RAM - Random Access Memory" style="text;html=1;align=center;verticalAlign=middle;whiteSpace=wrap;rounded=0;fontSize=15;textShadow=1;fontFamily=Comic Sans MS;" vertex="1" parent="1">
          <mxGeometry x="146.5" y="2210" width="557" height="30" as="geometry" />
        </mxCell>
        <mxCell id="a2JRWLy81K5dylXvyoho-66" value="MOSFET Battery" style="text;html=1;align=center;verticalAlign=middle;whiteSpace=wrap;rounded=0;fontSize=15;textShadow=1;fontFamily=Comic Sans MS;" vertex="1" parent="1">
          <mxGeometry x="143" y="2240" width="557" height="30" as="geometry" />
        </mxCell>
      </root>
    </mxGraphModel>
  </diagram>
</mxfile>
